<svg xmlns="http://www.w3.org/2000/svg" preserveAspectRatio="xMidYMid" width="31" height="28" viewBox="0 0 31 28"><defs><style>.cls-1{fill:#95e1d3;fill-rule:evenodd}</style></defs><path d="M29.5 23H20v2.5l2 2v.5H9v-.5l2-2V23H1.5A1.5 1.5 0 0 1 0 21.499V1.5A1.5 1.5 0 0 1 1.5 0h28A1.5 1.5 0 0 1 31 1.5v19.999A1.5 1.5 0 0 1 29.5 23zM29 2H2v17h27V2zM12.5 9c.414 0 .789.168 1.061.439l.939.939 2.939-2.939A1.499 1.499 0 0 1 20 8.5c0 .414-.168.789-.439 1.061l-4 4a1.499 1.499 0 0 1-2.122 0l-2-2.001A1.5 1.5 0 0 1 12.5 9z" class="cls-1"/></svg>