<svg xmlns="http://www.w3.org/2000/svg" preserveAspectRatio="xMidYMid" width="16" height="13.78" viewBox="0 0 16 13.78"><defs><style>.cls-1{fill:#95e1d3;fill-rule:evenodd}</style></defs><path d="M13.5 3.467v2.44h-1v-2.44H10v-.998h2.5V.029h1v2.44H16v.998h-2.5zM6.585.996c.888.491 1.408 1.288 1.408 2.331 0 .876-.541 1.566-1.239 2.102-.681.522-.81.742-.81 1.186 0 .378.729 1.024 1.111 1.289 1.114.774 1.444 1.493 1.444 2.693 0 1.497-1.444 3.169-4.116 3.169C2.039 13.766 0 12.645 0 11.148c0-1.52 1.866-2.987 4.209-2.987.256 0 .49-.01.732-.01-.321-.307-.574-.688-.574-1.151 0-.275.089-.55.213-.785-.127.009-.257-.012-.391-.012-1.924 0-3.214-1.391-3.214-3.057C.975 1.515 2.756.013 4.648.013h4.22l-.945.983H6.585zM4.656 8.549c-1.62-.017-3.071.97-3.071 2.156 0 1.209 1.17 2.094 2.789 2.094 2.277 0 3.071-.823 3.071-2.032 0-.146-.018-.289-.052-.428-.178-.685-.808-1.024-1.688-1.624a3.596 3.596 0 0 0-1.049-.166zm1.82-5.203C6.287 1.944 5.207.818 4.12.787 3.033.755 2.304 1.828 2.492 3.23 2.68 4.633 3.713 5.796 4.8 5.827c1.087.032 1.863-1.079 1.676-2.481z" class="cls-1"/></svg>