<svg xmlns="http://www.w3.org/2000/svg" preserveAspectRatio="xMidYMid" width="16.031" height="14.26" viewBox="0 0 16.031 14.26"><defs><style>.cls-1{fill:#95e1d3;fill-rule:evenodd}</style></defs><path d="M8.447 12.238c-.573 0-1.134-.165-1.676-.243-2.191 2.771-5.647 2.225-5.647 2.225 2.441-1.155 2.391-3.069 1.957-3.324C1.165 9.77.013 8.056.013 6.135c0-3.39 3.727-6.139 8.434-6.139 4.708 0 7.577 2.749 7.577 6.139 0 3.392-2.869 6.103-7.577 6.103zM4.273 4.755a1.5 1.5 0 1 0 0 3 1.5 1.5 0 0 0 0-3zm3.75 0a1.5 1.5 0 1 0 0 3 1.5 1.5 0 0 0 0-3zm3.75 0a1.5 1.5 0 1 0 0 3 1.5 1.5 0 0 0 0-3z" class="cls-1"/></svg>