<svg xmlns="http://www.w3.org/2000/svg" preserveAspectRatio="xMidYMid" width="19.438" height="11.26" viewBox="0 0 19.438 11.26"><defs><style>.cls-1{fill:#95e1d3;fill-rule:evenodd}</style></defs><path d="M19.429 5.656l-.002.024-.001.013-.002.017-.003.021v.002a.752.752 0 0 1-.204.41c-.203.247-.426.479-.65.707-1.211 1.23-2.602 2.327-4.123 3.122-.973.509-2.012.919-3.09 1.116a8.971 8.971 0 0 1-3.55-.05c-2.04-.444-3.887-1.545-5.503-2.863-.75-.611-1.488-1.28-2.108-2.032-.272-.329-.272-.719 0-1.048.204-.247.426-.48.651-.708 1.211-1.229 2.601-2.326 4.123-3.122C5.939.757 6.978.346 8.056.149a8.971 8.971 0 0 1 3.55.051c2.04.443 3.887 1.545 5.503 2.862.75.611 1.488 1.281 2.108 2.033a.747.747 0 0 1 .206.432l.003.018.001.012.001.025.002.037-.001.037zM9.71 1.822a3.645 3.645 0 1 0-.001 7.29 3.645 3.645 0 0 0 .001-7.29zm0 5.467a1.822 1.822 0 1 1-.002-3.644A1.822 1.822 0 0 1 9.71 7.29z" class="cls-1"/></svg>