<svg xmlns="http://www.w3.org/2000/svg" preserveAspectRatio="xMidYMid" width="16" height="13" viewBox="0 0 16 13"><defs><style>.cls-1{fill:#95e1d3;fill-rule:evenodd}</style></defs><path d="M10.883.016c1.271-.023 1.948.441 2.594 1.029.549-.047 1.262-.353 1.682-.566l.409-.224c-.24.649-.566 1.156-1.066 1.541-.11.086-.221.201-.36.256v.007c.712-.007 1.3-.328 1.858-.502v.008c-.293.466-.69.938-1.113 1.277l-.513.407c.01.755-.011 1.474-.152 2.108-.82 3.685-2.992 6.186-6.43 7.257-1.235.385-3.23.544-4.645.192a11.997 11.997 0 0 1-1.93-.631c-.33-.144-.636-.3-.929-.479A44.503 44.503 0 0 1 0 11.52c.319.01.692.098 1.049.04.323-.052.639-.038.937-.103.742-.163 1.402-.378 1.97-.711.275-.161.693-.35.889-.582a2.792 2.792 0 0 1-.977-.176c-1.062-.375-1.68-1.065-2.082-2.1.322.035 1.248.119 1.465-.064-.405-.022-.794-.257-1.073-.431C1.324 6.859.627 5.962.633 4.582l.336.16c.214.091.433.139.689.192.108.022.324.086.448.039H2.09c-.165-.191-.435-.32-.601-.526C.941 3.765.428 2.717.753 1.469c.082-.317.213-.596.352-.854a.12.12 0 0 1 .016.008c.064.133.206.231.296.343.28.347.626.659.977.934 1.199.937 2.279 1.514 4.012 1.94.44.108.949.19 1.474.192-.148-.43-.1-1.126.016-1.541.292-1.046.927-1.8 1.858-2.204.222-.096.469-.167.728-.223l.401-.048z" class="cls-1"/></svg>